<?xml version="1.0" standalone="no"?>
<!DOCTYPE svg PUBLIC "-//W3C//DTD SVG 20010904//EN"
 "http://www.w3.org/TR/2001/REC-SVG-20010904/DTD/svg10.dtd">
<svg version="1.0" xmlns="http://www.w3.org/2000/svg"
 width="512.000000pt" height="512.000000pt" viewBox="0 0 512.000000 512.000000"
 preserveAspectRatio="xMidYMid meet">
<metadata>
Created by potrace 1.14, written by Peter Selinger 2001-2017
</metadata>
<g transform="translate(0.000000,512.000000) scale(0.100000,-0.100000)"
fill="#000000" stroke="none">
<path d="M2650 5116 c0 -2 18 -41 39 -87 21 -46 49 -117 62 -156 13 -40 27
-73 32 -73 4 0 5 -5 2 -10 -4 -6 -1 -17 5 -25 7 -8 9 -15 5 -15 -4 0 -2 -7 5
-15 7 -9 10 -18 7 -22 -4 -3 -3 -11 2 -17 5 -6 37 -114 71 -241 138 -517 184
-647 275 -785 84 -126 201 -216 344 -265 134 -45 248 -58 483 -52 117 3 239 7
270 10 86 9 222 44 278 72 27 14 54 24 59 23 16 -4 85 67 107 109 10 21 25 46
33 55 19 24 22 222 5 322 -7 43 -12 82 -10 85 3 3 0 29 -5 56 -10 51 -14 91
-25 225 -3 41 -7 77 -9 81 -2 3 -7 37 -10 75 -3 38 -10 88 -16 111 -5 24 -8
46 -7 50 3 10 -20 145 -33 196 -6 21 -12 53 -14 72 -3 19 -12 52 -21 73 -13
33 -25 44 -72 65 -89 40 -198 66 -317 77 -100 9 -1545 15 -1545 6z"/>
<path d="M390 4906 c-176 -139 -297 -321 -358 -542 l-27 -99 0 -1705 0 -1705
27 -99 c115 -417 448 -702 869 -746 135 -14 3187 -14 3319 0 241 26 448 127
613 300 215 224 287 441 287 868 l0 143 -48 -39 c-228 -192 -486 -205 -872
-47 -230 94 -436 208 -900 498 -539 337 -708 405 -1090 437 -74 6 -151 16
-172 22 -20 6 -48 8 -63 4 -15 -4 -41 -2 -58 3 -18 6 -88 17 -157 26 -68 9
-130 21 -136 26 -6 5 -14 6 -17 2 -4 -3 -17 -1 -30 5 -12 6 -55 18 -95 27 -40
10 -75 21 -77 26 -3 4 -12 6 -20 2 -8 -3 -15 -1 -15 4 0 5 -22 15 -50 22 -27
7 -50 17 -50 21 0 5 -13 11 -30 15 -16 4 -30 11 -30 15 0 5 -7 6 -17 3 -11 -4
-14 -3 -9 5 4 7 1 12 -8 12 -10 0 -13 6 -9 18 6 15 5 15 -10 3 -20 -16 -23 -2
-4 18 10 11 9 13 -5 8 -25 -9 -22 0 3 14 15 8 19 8 15 0 -9 -14 0 -14 25 0 12
6 60 12 107 14 314 14 452 33 622 84 228 68 565 238 652 328 107 110 114 277
32 683 -116 570 -321 868 -663 962 -63 18 -104 22 -241 22 -211 -1 -296 -18
-612 -125 -265 -90 -330 -102 -403 -74 -83 31 -112 89 -174 348 -22 89 -46
179 -53 199 l-13 38 -55 -44z"/>
<path d="M3631 2759 c-163 -20 -301 -73 -343 -132 -19 -26 -23 -45 -23 -102 0
-58 5 -82 33 -139 92 -194 341 -430 585 -552 38 -20 117 -52 175 -72 102 -35
113 -36 242 -36 117 0 142 2 192 22 238 96 364 375 263 586 -84 177 -366 348
-680 411 -96 20 -341 28 -444 14z"/>
</g>
</svg>
