<?xml version="1.0" standalone="no"?>
<!DOCTYPE svg PUBLIC "-//W3C//DTD SVG 20010904//EN"
 "http://www.w3.org/TR/2001/REC-SVG-20010904/DTD/svg10.dtd">
<svg version="1.0" xmlns="http://www.w3.org/2000/svg"
 width="260.000000pt" height="260.000000pt" viewBox="0 0 260.000000 260.000000"
 preserveAspectRatio="xMidYMid meet">
<metadata>
Created by potrace 1.14, written by Peter Selinger 2001-2017
</metadata>
<g transform="translate(0.000000,260.000000) scale(0.100000,-0.100000)"
fill="#000000" stroke="none">
<path d="M307 2589 c-110 -26 -218 -116 -270 -227 l-32 -67 -3 -893 -3 -894
60 79 c94 124 177 176 423 264 222 79 328 143 402 242 38 52 112 212 180 392
141 370 219 505 337 580 132 85 332 65 452 -45 68 -62 105 -132 157 -300 23
-74 57 -184 76 -244 42 -133 108 -275 162 -348 57 -77 169 -176 261 -231 43
-26 81 -47 85 -47 3 0 6 309 6 688 0 738 -2 760 -52 848 -54 95 -137 164 -234
194 -65 20 -89 20 -1018 19 -523 -1 -968 -5 -989 -10z"/>
<path d="M1577 1518 c-69 -66 -108 -181 -108 -323 -1 -143 22 -211 129 -392
27 -45 52 -98 55 -117 7 -43 -6 -102 -30 -135 -57 -75 -126 -87 -283 -46 -195
51 -577 44 -805 -15 -147 -38 -287 -117 -410 -232 l-65 -60 18 -30 c26 -45 89
-97 162 -132 l65 -31 995 0 995 0 62 28 c33 16 73 42 88 57 l27 28 -11 89
c-31 242 -70 305 -291 473 -194 147 -226 197 -295 459 -51 195 -76 269 -110
327 -53 91 -125 111 -188 52z"/>
</g>
</svg>
